<?xml version="1.0" standalone="no"?><!DOCTYPE svg PUBLIC "-//W3C//DTD SVG 1.1//EN" "http://www.w3.org/Graphics/SVG/1.1/DTD/svg11.dtd"><svg width="500" height="330" version="1.1" xmlns="http://www.w3.org/2000/svg" xmlns:xlink="http://www.w3.org/1999/xlink"><defs><style class="exported-css" type="text/css">
.axis path, .axis line { fill: none; stroke: black; shape-rendering: crispedges; }
.axis text { font-family: sans-serif; font-size: 11px; }
.hit { stroke: rgba(255, 255, 255, 0.7); stroke-width: 1px; cursor: pointer; }
.axis-label { font-size: 11px; }</style></defs><polygon class="hit" fill="rgb(45,147,199)" points="350.6143851638908,62 368.6610419345733,269 414.3032336982091,269 378.1211258607896,62" style="opacity: 1;"/><polygon class="hit" fill="rgb(54,151,201)" points="324.7066223236852,62 324.396700435969,269 368.5239782956435,269 350.9601101058786,62" style="opacity: 1;"/><polygon class="hit" fill="rgb(105,178,215)" points="267.71386563700787,62 226.9228115296553,269 251.76018567888846,269 282.58868126602994,62" style="opacity: 1;"/><polygon class="hit" fill="rgb(128,190,221)" points="193.5256146482157,62 103.86851927359407,269 122.48031866511936,269 204.71413808329365,62" style="opacity: 1;"/><polygon class="hit" fill="rgb(130,190,222)" points="287.2430032975398,62 257.8054135432676,269 277.9176990872879,269 299.2828744022625,62" style="opacity: 1;"/><polygon class="hit" fill="rgb(131,191,222)" points="124.09108161175486,62 103.86851927359407,269 122.48031866511936,269 135.32282066458126,62" style="opacity: 1;"/><polygon class="hit" fill="rgb(135,193,223)" points="380.03557772704664,62 418.32136248157326,269 433.93940344384157,269 389.3874374078148,62" style="opacity: 1;"/><polygon class="hit" fill="rgb(136,194,223)" points="147.04721775974016,62 135.5302198663865,269 151.96342878650066,269 156.90470016816536,62" style="opacity: 1;"/><polygon class="hit" fill="rgb(137,194,224)" points="84.32407015961614,62 20.00721387573315,269 35.84888498572907,269 93.84879231137812,62" style="opacity: 1;"/><polygon class="hit" fill="rgb(139,195,224)" points="250.10350140450782,62 195.16733055233198,269 209.80428441489195,269 258.87195024567166,62" style="opacity: 1;"/><polygon class="hit" fill="rgb(140,196,224)" points="311.28817301278644,62 304.45754790954425,269 319.30370416836564,269 320.1733040218711,62" style="opacity: 1;"/><polygon class="hit" fill="rgb(141,196,225)" points="239.1742716759207,62 176.59160053947247,269 194.1213185710253,269 249.7188824065465,62" style="opacity: 1;"/><polygon class="hit" fill="rgb(146,199,226)" points="258.88491493099616,62 210.94407678072955,269 226.908383778189,269 268.28863335306244,62" style="opacity: 1;"/><polygon class="hit" fill="rgb(146,199,226)" points="170.77691346542304,62 176.59160053947247,269 194.1213185710253,269 181.33448888137335,62" style="opacity: 1;"/><polygon class="hit" fill="rgb(147,199,226)" points="217.32445534229612,62 138.69711131323902,269 151.96342878650066,269 225.302058378663,62" style="opacity: 1;"/><polygon class="hit" fill="rgb(148,200,226)" points="96.01389476057629,62 41.59113006931594,269 54.80695041244551,269 103.93099593209531,62" style="opacity: 1;"/><polygon class="hit" fill="rgb(149,200,227)" points="397.3996129383804,62 451.5051908540602,269 467.64263086911524,269 406.9459428990167,62" style="opacity: 1;"/><polygon class="hit" fill="rgb(151,202,227)" points="225.27180744623908,62 152.47561396355425,269 163.62105197126996,269 231.96158507370166,62" style="opacity: 1;"/><polygon class="hit" fill="rgb(152,202,227)" points="156.87877079751627,62 152.4828278392874,269 163.62105197126996,269 163.564226863204,62" style="opacity: 1;"/><polygon class="hit" fill="rgb(154,203,228)" points="183.86260251965865,62 86.36765674497381,269 99.51855220650505,269 191.76241744407827,62" style="opacity: 1;"/><polygon class="hit" fill="rgb(154,203,228)" points="114.4021401125487,62 86.36765674497381,269 99.51855220650505,269 122.32788440761743,62" style="opacity: 1;"/><polygon class="hit" fill="rgb(160,206,230)" points="304.3650310494821,62 292.706144340244,269 304.03914311702164,269 311.1844555301901,62" style="opacity: 1;"/><polygon class="hit" fill="rgb(162,207,230)" points="408.83446539462466,62 467.65705862058155,269 476.8186808016812,269 414.4395310166007,62" style="opacity: 1;"/><polygon class="hit" fill="rgb(162,207,230)" points="389.7936642146504,62 436.2911269328483,269 443.9739045886523,269 394.3961275048621,62" style="opacity: 1;"/><polygon class="hit" fill="rgb(162,207,230)" points="166.9652959800083,62 168.6996204874071,269 176.569958912273,269 171.6714767528163,62" style="opacity: 1;"/><polygon class="hit" fill="rgb(162,207,230)" points="235.36265419050596,62 168.6996204874071,269 176.569958912273,269 240.06883496331395,62" style="opacity: 1;"/><polygon class="hit" fill="rgb(165,208,231)" points="134.7350882632021,62 128.36684126336922,269 135.5157921149202,269 139.02639910562482,62" style="opacity: 1;"/><polygon class="hit" fill="rgb(165,208,231)" points="204.1264056819145,62 128.36684126336922,269 135.5157921149202,269 208.4177165243372,62" style="opacity: 1;"/><polygon class="hit" fill="rgb(167,210,232)" points="304.2397057580116,62 280.03136467710067,269 286.1487312988113,269 307.9043901430815,62" style="opacity: 1;"/><polygon class="hit" fill="rgb(167,210,232)" points="106.77458357994439,62 64.30762475300318,269 71.22573158109338,269 110.87574570427385,62" style="opacity: 1;"/><polygon class="hit" fill="rgb(172,212,233)" points="103.95260374096955,62 59.07035097073676,269 64.27155537433742,269 107.05116353353459,62" style="opacity: 1;"/><polygon class="hit" fill="rgb(173,213,233)" points="110.05032740527814,62 71.74513063388014,269 77.8408556283913,269 113.64586680195055,62" style="opacity: 1;"/><polygon class="hit" fill="rgb(173,213,233)" points="112.66487227906036,62 77.86249725559075,269 82.81842988426435,269 115.66403615080392,62" style="opacity: 1;"/><polygon class="hit" fill="rgb(174,213,233)" points="395.9432466202571,62 446.8017438760468,269 451.4907631025939,269 398.73065396503324,62" style="opacity: 1;"/><polygon class="hit" fill="rgb(174,213,233)" points="377.80133028945096,62 414.3032336982091,269 418.30693473010695,269 380.19979707449085,62" style="opacity: 1;"/><polygon class="hit" fill="rgb(175,214,234)" points="121.7963323093113,62 99.82153498729731,269 103.86130539786093,269 124.2250500267751,62" style="opacity: 1;"/><polygon class="hit" fill="rgb(175,214,234)" points="191.23086534577214,62 99.82153498729731,269 103.86130539786093,269 193.65958306323594,62" style="opacity: 1;"/><polygon class="hit" fill="rgb(176,214,234)" points="181.7191078793347,62 195.16733055233198,269 198.70934353730829,269 183.8409947107844,62" style="opacity: 1;"/><polygon class="hit" fill="rgb(176,214,234)" points="301.2275772009435,62 286.15594517454446,269 291.1335194304175,269 304.27427825221037,62" style="opacity: 1;"/><polygon class="hit" fill="rgb(176,214,234)" points="103.63712973140574,62 54.81416428817866,269 58.90443182887432,269 106.06584744886956,62" style="opacity: 1;"/><polygon class="hit" fill="rgb(178,215,234)" points="413.3634621346639,62 476.8258946774143,269 480,269 415.2649493155964,62" style="opacity: 1;"/><polygon class="hit" fill="rgb(179,216,235)" points="114.4194263596481,62 82.8400715114638,269 86.34601511777437,269 116.54563475287263,62" style="opacity: 1;"/><polygon class="hit" fill="rgb(179,216,235)" points="183.87988876675803,62 82.8400715114638,269 86.34601511777437,269 186.00609715998257,62" style="opacity: 1;"/><polygon class="hit" fill="rgb(181,217,235)" points="135.72040434786715,62 123.0862842267039,269 126.19546466769125,269 137.6434993376739,62" style="opacity: 1;"/><polygon class="hit" fill="rgb(181,217,235)" points="205.11172176657954,62 123.0862842267039,269 126.19546466769125,269 207.0348167563863,62" style="opacity: 1;"/><g class="axis" transform="translate(0,60)"><g class="tick" style="opacity: 1;" transform="translate(37.75059891209398,0)"><line y2="-6" x2="0"/><text y="2px" x="9px" dy="0" style="text-anchor: start;" dx="0" transform="rotate(-90)">160kb</text></g><g class="tick" style="opacity: 1;" transform="translate(80.96621666056032,0)"><line y2="-6" x2="0"/><text y="2px" x="9px" dy="0" style="text-anchor: start;" dx="0" transform="rotate(-90)">170kb</text></g><g class="tick" style="opacity: 1;" transform="translate(124.18183440902664,0)"><line y2="-6" x2="0"/><text y="2px" x="9px" dy="0" style="text-anchor: start;" dx="0" transform="rotate(-90)">180kb</text></g><g class="tick" style="opacity: 1;" transform="translate(167.39745215749295,0)"><line y2="-6" x2="0"/><text y="2px" x="9px" dy="0" style="text-anchor: start;" dx="0" transform="rotate(-90)">190kb</text></g><g class="tick" style="opacity: 1;" transform="translate(210.6130699059593,0)"><line y2="-6" x2="0"/><text y="2px" x="9px" dy="0" style="text-anchor: start;" dx="0" transform="rotate(-90)">200kb</text></g><g class="tick" style="opacity: 1;" transform="translate(253.8286876544256,0)"><line y2="-6" x2="0"/><text y="2px" x="9px" dy="0" style="text-anchor: start;" dx="0" transform="rotate(-90)">210kb</text></g><g class="tick" style="opacity: 1;" transform="translate(297.04430540289195,0)"><line y2="-6" x2="0"/><text y="2px" x="9px" dy="0" style="text-anchor: start;" dx="0" transform="rotate(-90)">220kb</text></g><g class="tick" style="opacity: 1;" transform="translate(340.2599231513583,0)"><line y2="-6" x2="0"/><text y="2px" x="9px" dy="0" style="text-anchor: start;" dx="0" transform="rotate(-90)">230kb</text></g><g class="tick" style="opacity: 1;" transform="translate(383.47554089982464,0)"><line y2="-6" x2="0"/><text y="2px" x="9px" dy="0" style="text-anchor: start;" dx="0" transform="rotate(-90)">240kb</text></g><g class="tick" style="opacity: 1;" transform="translate(426.6911586482909,0)"><line y2="-6" x2="0"/><text y="2px" x="9px" dy="0" style="text-anchor: start;" dx="0" transform="rotate(-90)">250kb</text></g><g class="tick" style="opacity: 1;" transform="translate(469.90677639675727,0)"><line y2="-6" x2="0"/><text y="2px" x="9px" dy="0" style="text-anchor: start;" dx="0" transform="rotate(-90)">260kb</text></g><path class="domain" d="M20,-6V0H480V-6"/></g><g class="axis" transform="translate(0,270)"><g class="tick" style="opacity: 1;" transform="translate(20,0)"><line y2="6" x2="0"/><text y="3px" x="-11px" dy="0" style="text-anchor: end;" dx="0" transform="rotate(-90)">0.0b</text></g><g class="tick" style="opacity: 1;" transform="translate(56.06937866574664,0)"><line y2="6" x2="0"/><text y="3px" x="-11px" dy="0" style="text-anchor: end;" dx="0" transform="rotate(-90)">5.0kb</text></g><g class="tick" style="opacity: 1;" transform="translate(92.13875733149328,0)"><line y2="6" x2="0"/><text y="3px" x="-11px" dy="0" style="text-anchor: end;" dx="0" transform="rotate(-90)">10kb</text></g><g class="tick" style="opacity: 1;" transform="translate(128.20813599723994,0)"><line y2="6" x2="0"/><text y="3px" x="-11px" dy="0" style="text-anchor: end;" dx="0" transform="rotate(-90)">15kb</text></g><g class="tick" style="opacity: 1;" transform="translate(164.27751466298656,0)"><line y2="6" x2="0"/><text y="3px" x="-11px" dy="0" style="text-anchor: end;" dx="0" transform="rotate(-90)">20kb</text></g><g class="tick" style="opacity: 1;" transform="translate(200.3468933287332,0)"><line y2="6" x2="0"/><text y="3px" x="-11px" dy="0" style="text-anchor: end;" dx="0" transform="rotate(-90)">25kb</text></g><g class="tick" style="opacity: 1;" transform="translate(236.41627199447984,0)"><line y2="6" x2="0"/><text y="3px" x="-11px" dy="0" style="text-anchor: end;" dx="0" transform="rotate(-90)">30kb</text></g><g class="tick" style="opacity: 1;" transform="translate(272.48565066022644,0)"><line y2="6" x2="0"/><text y="3px" x="-11px" dy="0" style="text-anchor: end;" dx="0" transform="rotate(-90)">35kb</text></g><g class="tick" style="opacity: 1;" transform="translate(308.5550293259731,0)"><line y2="6" x2="0"/><text y="3px" x="-11px" dy="0" style="text-anchor: end;" dx="0" transform="rotate(-90)">40kb</text></g><g class="tick" style="opacity: 1;" transform="translate(344.62440799171975,0)"><line y2="6" x2="0"/><text y="3px" x="-11px" dy="0" style="text-anchor: end;" dx="0" transform="rotate(-90)">45kb</text></g><g class="tick" style="opacity: 1;" transform="translate(380.6937866574664,0)"><line y2="6" x2="0"/><text y="3px" x="-11px" dy="0" style="text-anchor: end;" dx="0" transform="rotate(-90)">50kb</text></g><g class="tick" style="opacity: 1;" transform="translate(416.763165323213,0)"><line y2="6" x2="0"/><text y="3px" x="-11px" dy="0" style="text-anchor: end;" dx="0" transform="rotate(-90)">55kb</text></g><g class="tick" style="opacity: 1;" transform="translate(452.8325439889597,0)"><line y2="6" x2="0"/><text y="3px" x="-11px" dy="0" style="text-anchor: end;" dx="0" transform="rotate(-90)">60kb</text></g><path class="domain" d="M20,6V0H480V6"/></g><text class="query axis-label" text-anchor="end" x="250" y="12px">Query</text><text class="subject axis-label" text-anchor="end" x="250" y="325">Subject</text></svg>