<?xml version="1.0" encoding="UTF-8" standalone="no"?>
<!-- Created with Inkscape (http://www.inkscape.org/) -->
<svg id="svg5388" xmlns:rdf="http://www.w3.org/1999/02/22-rdf-syntax-ns#" xmlns="http://www.w3.org/2000/svg" height="39.416" width="194.12" version="1.1" xmlns:cc="http://creativecommons.org/ns#" xmlns:dc="http://purl.org/dc/elements/1.1/">
 <metadata id="metadata5393">
  <rdf:RDF>
   <cc:Work rdf:about="">
    <dc:format>image/svg+xml</dc:format>
    <dc:type rdf:resource="http://purl.org/dc/dcmitype/StillImage"/>
    <dc:title/>
   </cc:Work>
  </rdf:RDF>
 </metadata>
 <path id="path5003" fill="#FFF" d="M194.12,4.7355,192.32,3.4145,193.5,1.5205,191.35,2.1004,190.6,0l-0.88818,2.0448-2.1076-0.72498,1.0441,1.9698-0.77133,0.49044c-2.5368,0.6464-6.0738,2.324-9.0947,7.687l-2.5606-1.7091-3.0297,4.5389c-1.2884-0.43241-2.6666-0.67017-4.1012-0.67017-7.1217,0-12.895,5.7732-12.895,12.895,0,7.122,5.7732,12.895,12.895,12.895,7.122,0,12.895-5.7728,12.895-12.895,0-2.8661-0.93615-5.5129-2.5187-7.654l3.2062-4.8028-2.9205-1.9497c2.972-5.3283,6.3648-6.761,8.7808-7.2977l0.42435,0.07979-0.23817,2.2164,1.6877-1.4568,1.5858,1.568-0.0874-2.2273,2.2136-0.26194zm-21.828,12.205c-0.0946,0.2015-0.33529,0.28814-0.53558,0.19424-4.0738-1.9045-8.9383-0.13943-10.843,3.9352-0.0686,0.14628-0.21357,0.23212-0.3651,0.23212-0.0573,0-0.11524-0.01208-0.17047-0.03788-0.20149-0.0943-0.28854-0.33408-0.19425-0.53598,2.0932-4.4768,7.4388-6.4164,11.914-4.3237,0.20148,0.09471,0.28854,0.33448,0.19424,0.53598zm5.0708-5.3465-3.0301,4.5389c-0.0774,0.11646-0.20551,0.17933-0.33569,0.17933-0.0769,0-0.15474-0.02177-0.22326-0.0677-0.18496-0.12372-0.23494-0.37357-0.11129-0.55895l3.0297-4.5389c0.12371-0.18497,0.37398-0.23535,0.55895-0.11123,0.18498,0.12332,0.23494,0.37317,0.11163,0.55854zm13.072-6.7283-0.97888,0.84467,0.11689-1.0889c0.15353-0.02499,0.30102-0.04755,0.44086-0.06891,0.1741-0.0266,0.33609-0.05119,0.48641-0.07696l-0.19303-1.1469c-0.14468,0.02418-0.30104,0.04836-0.46828,0.07374-0.13742,0.02097-0.2833,0.04351-0.43604,0.0677l-0.59439-1.1211,1.2231,0.42032,0.51502-1.1856,0.43322,1.2178,1.2493-0.33609-0.68226,1.0986,1.0417,0.76649-1.2847,0.15233,0.0509,1.2924-0.91964-0.90955z"/>
 <g id="text5005" style="letter-spacing:0px;text-anchor:middle;word-spacing:0px;text-align:center;" line-height="125%" font-weight="normal" font-size="23.58928871px" transform="translate(-44.989301,-15.29576)" font-stretch="normal" font-variant="normal" font-style="normal" font-family="DejaVu Sans" fill="#FFF">
  <path id="path3848" d="m44.989,51.235,0-24.158,4.7021,0,0,11.789,10.461-11.823,4.8725,0-9.268,10.733,9.8472,13.459-4.9747,0-7.7006-10.801-3.237,3.5096,0,7.2917-4.7021,0"/>
  <path id="path3850" d="m71.979,51.576c-0.8632,0-1.6696-0.13629-2.4192-0.40888-0.74962-0.2953-1.397-0.69282-1.9422-1.1926-0.54518-0.52246-0.97677-1.1244-1.2948-1.8059-0.2953-0.68146-0.44296-1.4311-0.44295-2.2488-0.000001-0.84047,0.18172-1.6128,0.54518-2.317,0.38616-0.72689,0.90862-1.3402,1.5674-1.84,0.68146-0.49973,1.4879-0.8859,2.4192-1.1585,0.93133-0.29529,1.9535-0.44294,3.0666-0.44296,0.79504,0.000011,1.5674,0.06816,2.317,0.20444,0.77232,0.1363,1.4538,0.32939,2.0444,0.57925v-1.0222c-0.000013-1.1812-0.34075-2.0898-1.0222-2.7259-0.65876-0.63602-1.6469-0.95404-2.9644-0.95406-0.95406,0.000015-1.8854,0.17038-2.794,0.5111-0.90863,0.34075-1.84,0.84049-2.794,1.4992l-1.397-2.8962c2.2943-1.5219,4.7703-2.2829,7.428-2.2829,2.5669,0.000019,4.5545,0.63606,5.9628,1.9081,1.4311,1.2494,2.1466,3.0666,2.1466,5.4517v5.554c-0.000018,0.47703,0.09085,0.81777,0.27259,1.0222,0.18171,0.20444,0.49972,0.31802,0.95406,0.34073v3.8844c-0.43162,0.09086-0.8405,0.14765-1.2266,0.17037-0.36347,0.04543-0.68148,0.06815-0.95406,0.06815-0.86321-0.02272-1.522-0.2158-1.9763-0.57925-0.455-0.385-0.739-0.896-0.853-1.532l-0.10222-0.98813c-0.79506,1.0449-1.7605,1.84-2.8962,2.3851-1.1358,0.54518-2.3511,0.81776-3.6459,0.81776m1.2948-3.3392c0.77232,0.000003,1.4992-0.13629,2.1807-0.40888,0.70417-0.27258,1.2493-0.63603,1.6355-1.0903,0.49973-0.38616,0.7496-0.81776,0.74962-1.2948v-2.0444c-0.545-0.205-1.136-0.364-1.772-0.478-0.63605-0.13628-1.2494-0.20443-1.84-0.20444-1.1812,0.000008-2.1466,0.2726-2.8962,0.81776-0.74962,0.52247-1.1244,1.1926-1.1244,2.0103-0.000005,0.77234,0.2953,1.4197,0.88591,1.9422,0.5906,0.49975,1.3175,0.74962,2.1807,0.74962"/>
  <path id="path3852" d="m96.925,51.576c-1.3629,0-2.5782-0.30666-3.6459-0.91998-1.0676-0.61332-1.9081-1.4538-2.5214-2.5214v3.1007h-3.9866v-24.874h4.5658v10.154c0.63603-1.0903,1.4651-1.9308,2.4874-2.5214,1.0449-0.6133,2.2488-0.91996,3.6118-0.91998,1.1585,0.000019,2.2148,0.24989,3.1688,0.74962,0.97675,0.49976,1.8059,1.1699,2.4874,2.0103,0.70416,0.84049,1.238,1.8286,1.6014,2.9644,0.38614,1.1358,0.57922,2.3284,0.57924,3.5777-0.00002,1.2948-0.21581,2.4987-0.64739,3.6118-0.4089,1.1131-0.98815,2.0898-1.7377,2.9303-0.74964,0.81776-1.6356,1.4652-2.6577,1.9422-1.0222,0.47703-2.1239,0.71554-3.3051,0.71554m-1.2607-3.8844c0.72689,0.000003,1.3856-0.13629,1.9763-0.40888,0.61331-0.2953,1.1358-0.68146,1.5674-1.1585,0.4543-0.47702,0.79503-1.0336,1.0222-1.6696,0.24985-0.63603,0.37479-1.3175,0.37481-2.0444-0.00002-0.72689-0.1136-1.4197-0.34074-2.0785-0.22717-0.65874-0.55654-1.238-0.98813-1.7377-0.4089-0.49973-0.89728-0.89725-1.4652-1.1926-0.5679-0.29529-1.1926-0.44294-1.874-0.44295-1.0222,0.000014-1.9422,0.34075-2.7599,1.0222-0.79505,0.65876-1.4084,1.4765-1.84,2.4533v4.2592c0.159,0.45432,0.38616,0.8632,0.68147,1.2266,0.31801,0.36346,0.6701,0.68147,1.0563,0.95406,0.38616,0.24988,0.8064,0.45432,1.2607,0.61332,0.4543,0.1363,0.89726,0.20444,1.3289,0.20444"/>
  <path id="path3854" d="m108.3,26.362,4.5658,0,0,18.945c0,1.3857,0.62468,2.0785,1.874,2.0785,0.24986,0.000004,0.53381-0.04543,0.85184-0.13629,0.34072-0.09086,0.65874-0.19308,0.95405-0.30666l0.61332,3.6459c-0.61333,0.2953-1.3289,0.52246-2.1466,0.68147-0.81777,0.15901-1.556,0.23851-2.2148,0.23851-1.4311,0-2.5442-0.37481-3.3392-1.1244-0.77233-0.77233-1.1585-1.8627-1.1585-3.271v-20.751"/>
  <path id="path3856" d="m124.02,51.576c-0.8632,0-1.6696-0.13629-2.4192-0.40888-0.74962-0.2953-1.397-0.69282-1.9422-1.1926-0.54518-0.52246-0.97678-1.1244-1.2948-1.8059-0.29531-0.68146-0.44296-1.4311-0.44296-2.2488,0-0.84047,0.18173-1.6128,0.54518-2.317,0.38616-0.72689,0.90862-1.3402,1.5674-1.84,0.68146-0.49973,1.4879-0.8859,2.4192-1.1585,0.93133-0.29529,1.9535-0.44294,3.0666-0.44296,0.79503,0.000011,1.5674,0.06816,2.317,0.20444,0.77232,0.1363,1.4538,0.32939,2.0444,0.57925v-1.0222c-0.00001-1.1812-0.34074-2.0898-1.0222-2.7259-0.65876-0.63602-1.6469-0.95404-2.9644-0.95406-0.95406,0.000015-1.8854,0.17038-2.794,0.5111-0.90863,0.34075-1.84,0.84049-2.794,1.4992l-1.397-2.8962c2.2943-1.5219,4.7703-2.2829,7.428-2.2829,2.5668,0.000019,4.5545,0.63606,5.9628,1.9081,1.4311,1.2494,2.1466,3.0666,2.1466,5.4517v5.554c-0.00002,0.47703,0.0908,0.81777,0.27259,1.0222,0.18171,0.20444,0.49972,0.31802,0.95405,0.34073v3.8844c-0.43161,0.09086-0.84049,0.14765-1.2266,0.17037-0.36347,0.04543-0.68148,0.06815-0.95405,0.06815-0.86321-0.02272-1.522-0.2158-1.9763-0.57925-0.45433-0.38616-0.73827-0.89727-0.85184-1.5333l-0.10222-0.98813c-0.79506,1.0449-1.7605,1.84-2.8962,2.3851-1.1358,0.54518-2.3511,0.81776-3.6458,0.81776m1.2948-3.3392c0.77232,0.000003,1.4992-0.13629,2.1807-0.40888,0.70418-0.27258,1.2494-0.63603,1.6355-1.0903,0.49973-0.38616,0.7496-0.81776,0.74961-1.2948v-2.0444c-0.54518-0.20443-1.1358-0.36344-1.7718-0.47703-0.63605-0.13628-1.2494-0.20443-1.84-0.20444-1.1812,0.000008-2.1466,0.2726-2.8962,0.81776-0.74962,0.52247-1.1244,1.1926-1.1244,2.0103-0.00001,0.77234,0.2953,1.4197,0.88591,1.9422,0.5906,0.49975,1.3175,0.74962,2.1807,0.74962"/>
  <path id="path3858" d="m166.55,51.235-4.5658,0,0-10.018c-0.00003-1.4311-0.2499-2.476-0.74962-3.1348-0.49976-0.65874-1.1812-0.98812-2.0444-0.98813-0.88593,0.000014-1.7264,0.3521-2.5214,1.0563-0.79507,0.68148-1.363,1.5787-1.7037,2.6918v10.392h-4.5658v-10.018c-0.00002-1.4311-0.24989-2.476-0.74962-3.1348-0.47704-0.65874-1.1472-0.98812-2.0103-0.98813-0.88592,0.000014-1.7378,0.34075-2.5555,1.0222-0.79505,0.68148-1.3629,1.5787-1.7037,2.6918v10.426h-4.5658v-17.854h4.1229v3.3051c0.65874-1.1585,1.556-2.0444,2.6918-2.6577,1.1585-0.63602,2.476-0.95404,3.9525-0.95406,1.4992,0.000019,2.6464,0.36347,3.4414,1.0904,0.81775,0.72692,1.3516,1.6242,1.6014,2.6918,0.72688-1.2266,1.6469-2.158,2.76-2.794,1.113-0.65874,2.3851-0.98811,3.8162-0.98813,1.0903,0.000019,1.9876,0.20446,2.6918,0.61332,0.70416,0.4089,1.2493,0.94271,1.6355,1.6015,0.38614,0.65877,0.64737,1.4084,0.78369,2.2488,0.15898,0.84049,0.23849,1.6923,0.23852,2.5555v11.142"/>
  <path id="path3860" d="m198.23,51.235-4.5658,0,0-10.018c-0.00002-1.4311-0.24989-2.476-0.74961-3.1348-0.49977-0.65874-1.1812-0.98812-2.0444-0.98813-0.88593,0.000014-1.7264,0.3521-2.5214,1.0563-0.79506,0.68148-1.363,1.5787-1.7037,2.6918v10.392h-4.5658v-10.018c-0.00001-1.4311-0.24988-2.476-0.74961-3.1348-0.47704-0.65874-1.1472-0.98812-2.0103-0.98813-0.88592,0.000014-1.7378,0.34075-2.5555,1.0222-0.79505,0.68148-1.3629,1.5787-1.7037,2.6918v10.426h-4.5658v-17.854h4.1229v3.3051c0.65875-1.1585,1.556-2.0444,2.6918-2.6577,1.1585-0.63602,2.476-0.95404,3.9525-0.95406,1.4992,0.000019,2.6464,0.36347,3.4414,1.0904,0.81774,0.72692,1.3516,1.6242,1.6014,2.6918,0.72688-1.2266,1.6469-2.158,2.7599-2.794,1.113-0.65874,2.3851-0.98811,3.8162-0.98813,1.0903,0.000019,1.9876,0.20446,2.6918,0.61332,0.70415,0.4089,1.2493,0.94271,1.6355,1.6015,0.38614,0.65877,0.64737,1.4084,0.78369,2.2488,0.15898,0.84049,0.23848,1.6923,0.23851,2.5555v11.142"/>
 </g>
</svg>
