<?xml version="1.0" encoding="UTF-8" standalone="no"?>
<!-- Created with Inkscape (http://www.inkscape.org/) -->

<svg
   xmlns:dc="http://purl.org/dc/elements/1.1/"
   xmlns:cc="http://creativecommons.org/ns#"
   xmlns:rdf="http://www.w3.org/1999/02/22-rdf-syntax-ns#"
   xmlns:svg="http://www.w3.org/2000/svg"
   xmlns="http://www.w3.org/2000/svg"
   version="1.1"
   width="122.08417"
   height="29.746618"
   id="svg3640">
  <defs
     id="defs3642">
    <clipPath
       id="clipPath614">
      <path
         d="M 0,600 600,600 600,0 0,0 0,600 z"
         id="path616" />
    </clipPath>
  </defs>
  <metadata
     id="metadata3645">
    <rdf:RDF>
      <cc:Work
         rdf:about="">
        <dc:format>image/svg+xml</dc:format>
        <dc:type
           rdf:resource="http://purl.org/dc/dcmitype/StillImage" />
        <dc:title></dc:title>
      </cc:Work>
    </rdf:RDF>
  </metadata>
  <g
     transform="translate(-257.48273,-351.43418)"
     id="layer1">
    <g
       transform="matrix(-0.03358257,0.99943595,-0.99943595,-0.03358257,725.59053,95.713978)"
       id="g3755">
      <g
         transform="matrix(1.25,0,0,-1.25,166.23649,514.81582)"
         id="g610">
        <g
           clip-path="url(#clipPath614)"
           id="g612">
          <g
             transform="translate(97.5405,129.5508)"
             id="g618" />
          <g
             transform="translate(98.2651,125.5703)"
             id="g622" />
          <g
             transform="translate(97.5405,120.9258)"
             id="g626" />
          <g
             transform="translate(98.1118,106.8535)"
             id="g630" />
          <g
             transform="translate(98.2651,102.4082)"
             id="g634" />
          <g
             transform="translate(98.4863,97.4668)"
             id="g638" />
          <g
             transform="translate(98.687,93.0742)"
             id="g642">
            <g
               id="g3915"
               style="stroke:#00adeb;stroke-opacity:1">
              <path
                 d="M 0,0 5.4655248,2.2628977"
                 transform="translate(-1.146504,36.476603)"
                 id="path620"
                 style="fill:none;stroke:#00adeb;stroke-width:0.72500002;stroke-linecap:butt;stroke-linejoin:miter;stroke-miterlimit:10;stroke-opacity:1;stroke-dasharray:none" />
              <path
                 d="M 0,0 4.952,2.025"
                 transform="translate(-0.42189975,32.4961)"
                 id="path624"
                 style="fill:none;stroke:#00adeb;stroke-width:0.72500002;stroke-linecap:butt;stroke-linejoin:miter;stroke-miterlimit:10;stroke-opacity:1;stroke-dasharray:none" />
              <path
                 d="M 0,0 4.952,2.025"
                 transform="translate(-1.1465023,27.851602)"
                 id="path628"
                 style="fill:none;stroke:#00adeb;stroke-width:0.72500002;stroke-linecap:butt;stroke-linejoin:miter;stroke-miterlimit:10;stroke-opacity:1;stroke-dasharray:none" />
              <path
                 d="M 0,0 4.953,2.027"
                 transform="translate(-0.57520393,13.779298)"
                 id="path632"
                 style="fill:none;stroke:#00adeb;stroke-width:0.72500002;stroke-linecap:butt;stroke-linejoin:miter;stroke-miterlimit:10;stroke-opacity:1;stroke-dasharray:none" />
              <path
                 d="M 0,0 4.952,2.025"
                 transform="translate(-0.42189702,9.3340034)"
                 id="path636"
                 style="fill:none;stroke:#00adeb;stroke-width:0.72500002;stroke-linecap:butt;stroke-linejoin:miter;stroke-miterlimit:10;stroke-opacity:1;stroke-dasharray:none" />
              <path
                 d="M 0,0 5.315,2.225"
                 transform="translate(-0.20069912,4.3925966)"
                 id="path640"
                 style="fill:none;stroke:#00adeb;stroke-width:0.72500002;stroke-linecap:butt;stroke-linejoin:miter;stroke-miterlimit:10;stroke-opacity:1;stroke-dasharray:none" />
              <path
                 d="M 0,0 4.952,2.025"
                 id="path644"
                 style="fill:none;stroke:#00adeb;stroke-width:0.72500002;stroke-linecap:butt;stroke-linejoin:miter;stroke-miterlimit:10;stroke-opacity:1;stroke-dasharray:none" />
            </g>
          </g>
          <g
             transform="translate(98.6841,142.6621)"
             id="g646">
            <path
               d="m 0,0 c 1.705,-2.057 3.071,-4.386 4.207,-6.84 1.098,-2.469 1.928,-5.116 2.147,-7.923 l 0.034,-0.526 0.017,-0.537 c 0.011,-0.325 0.012,-0.66 -0.011,-1.034 -0.027,-0.73 -0.108,-1.41 -0.204,-2.111 -0.213,-1.384 -0.542,-2.742 -0.961,-4.05 -0.875,-2.606 -1.96,-5.055 -2.969,-7.452 -1.016,-2.395 -1.838,-4.799 -2.273,-7.255 -0.448,-2.466 -0.319,-4.931 0.189,-7.466 2.2089488,-7.912181 3.6932972,-10.884144 1.4077157,-7.970535 C 0.40071568,-50.765535 -1.065,-48.295 -1.784,-45.659 c -0.362,1.317 -0.648,2.671 -0.792,4.073 -0.128,1.401 -0.082,2.829 0.083,4.214 0.305,2.798 1.243,5.436 2.232,7.932 2.043,4.953 4.471,9.565 4.424,14.588 C 4.153,-12.359 3.66,-9.81 2.907,-7.327 2.168,-4.832 1.165,-2.392 0,0"
               id="path648"
               style="fill:#00adeb;fill-opacity:1;fill-rule:nonzero;stroke:none" />
          </g>
          <g
             transform="translate(103.0786,141.8125)"
             id="g650">
            <path
               d="m 0,0 c -1.3,-2.357 -2.432,-4.777 -3.279,-7.269 -0.859,-2.476 -1.439,-5.041 -1.468,-7.547 -0.014,-2.5 0.587,-4.955 1.562,-7.335 0.92,-2.405 2.2,-4.736 3.308,-7.229 1.1,-2.484 2.148,-5.132 2.508,-7.976 0.189,-1.41 0.242,-2.858 0.098,-4.291 -0.162,-1.427 -0.483,-2.795 -0.886,-4.121 -0.804,-2.654 -1.975,-5.13 -3.269,-7.509 -0.5151581,0.107682 -1.3841431,-0.267485 -1.47903,0.677168 0.997,2.462 2.21803,4.824832 2.80303,7.349832 0.589,2.546 0.749,5.025 0.261,7.5 -0.479,2.463 -1.395,4.861 -2.515,7.242 -1.111,2.384 -2.319,4.813 -3.295,7.426 -0.929,2.614 -1.552,5.499 -1.284,8.371 0.243,2.857 1.173,5.523 2.378,7.98 C -3.312,-4.291 -1.823,-1.997 0,0"
               id="path652"
               style="fill:#00adeb;fill-opacity:1;fill-rule:nonzero;stroke:none" />
          </g>
        </g>
      </g>
    </g>
    <g
       transform="translate(0,3.8571429)"
       id="text3019"
       style="font-size:20.40081024px;font-style:normal;font-weight:normal;line-height:125%;letter-spacing:0px;word-spacing:0px;fill:#00adeb;fill-opacity:1;stroke:none;font-family:Sans">
      <path
         d="m 278.50081,362.67364 c -0.51683,0 -0.99965,-0.0816 -1.44846,-0.24481 -0.44882,-0.1768 -0.83644,-0.41481 -1.16285,-0.71402 -0.32641,-0.31282 -0.58482,-0.67323 -0.77523,-1.08125 -0.17681,-0.40801 -0.26521,-0.85683 -0.26521,-1.34645 0,-0.50322 0.1088,-0.96564 0.32641,-1.38726 0.23121,-0.43521 0.54402,-0.80242 0.93844,-1.10164 0.40802,-0.29921 0.89083,-0.53042 1.44846,-0.69363 0.55762,-0.1768 1.16964,-0.2652 1.83607,-0.26521 0.47602,1e-5 0.93843,0.0408 1.38726,0.12241 0.46241,0.0816 0.87042,0.19721 1.22405,0.34681 l 0,-0.61202 c -10e-6,-0.70722 -0.20402,-1.25125 -0.61203,-1.63207 -0.39442,-0.38081 -0.98604,-0.57121 -1.77487,-0.57122 -0.57123,10e-6 -1.12885,0.10201 -1.67287,0.30601 -0.54402,0.20402 -1.10164,0.50323 -1.67286,0.89764 l -0.83644,-1.73407 c 1.37366,-0.91123 2.85611,-1.36685 4.44738,-1.36686 1.53686,10e-6 2.7269,0.38083 3.57014,1.14245 0.85683,0.74804 1.28524,1.83608 1.28525,3.26413 l 0,3.32533 c -10e-6,0.28561 0.0544,0.48962 0.16321,0.61202 0.10879,0.12241 0.2992,0.19041 0.57122,0.20401 l 0,2.3257 c -0.25842,0.0544 -0.50323,0.0884 -0.73443,0.102 -0.21761,0.0272 -0.40802,0.0408 -0.57122,0.0408 -0.51683,-0.0136 -0.91124,-0.1292 -1.18325,-0.34681 -0.27201,-0.23121 -0.44202,-0.53722 -0.51002,-0.91804 l -0.0612,-0.59162 c -0.47602,0.62562 -1.05405,1.10164 -1.73407,1.42805 -0.68003,0.32642 -1.40766,0.48962 -2.18288,0.48962 m 0.77523,-1.99928 c 0.46241,1e-5 0.89763,-0.0816 1.30565,-0.24481 0.42161,-0.1632 0.74802,-0.38081 0.97924,-0.65282 0.2992,-0.23121 0.44881,-0.48962 0.44882,-0.77523 l 0,-1.22405 c -0.32642,-0.1224 -0.68004,-0.21761 -1.06085,-0.28561 -0.38082,-0.0816 -0.74803,-0.1224 -1.10164,-0.12241 -0.70723,10e-6 -1.28526,0.16321 -1.73407,0.48962 -0.44882,0.31282 -0.67323,0.71403 -0.67323,1.20365 0,0.46242 0.17681,0.85004 0.53042,1.16285 0.35362,0.29921 0.78883,0.44882 1.30566,0.44881"
         id="path3105"
         style="font-variant:normal;font-weight:bold;font-stretch:normal;fill:#00adeb;font-family:Raleway;-inkscape-font-specification:Raleway Bold" />
      <path
         d="m 291.58028,362.67364 c -0.43523,0 -0.89084,-0.034 -1.36686,-0.102 -0.46242,-0.068 -0.91804,-0.16321 -1.36685,-0.28561 -0.44882,-0.12241 -0.87724,-0.27201 -1.28525,-0.44882 -0.40802,-0.17681 -0.76844,-0.37401 -1.08125,-0.59162 l 1.10165,-1.85648 c 1.36005,0.88404 2.6725,1.32606 3.93735,1.32606 0.57122,0 1.02004,-0.10201 1.34646,-0.30602 0.3264,-0.204 0.48961,-0.49641 0.48962,-0.87723 -10e-6,-0.38081 -0.19722,-0.65962 -0.59163,-0.83643 -0.38082,-0.19041 -1.02684,-0.39442 -1.93807,-0.61203 -0.69364,-0.1632 -1.28526,-0.33321 -1.77488,-0.51002 -0.48962,-0.1768 -0.88403,-0.38081 -1.18324,-0.61202 -0.29922,-0.23121 -0.51682,-0.49642 -0.65283,-0.79564 -0.136,-0.2992 -0.20401,-0.65281 -0.20401,-1.06084 0,-0.54401 0.10881,-1.03363 0.32642,-1.46886 0.2176,-0.4352 0.51682,-0.80242 0.89763,-1.10164 0.39442,-0.3128 0.85003,-0.55081 1.36686,-0.71403 0.53041,-0.16319 1.10164,-0.2448 1.71366,-0.24481 0.76163,10e-6 1.51646,0.12242 2.26449,0.36722 0.76163,0.23122 1.46885,0.55083 2.12169,0.95884 l -1.12205,1.69326 c -0.59843,-0.3808 -1.16285,-0.65282 -1.69326,-0.81603 -0.53043,-0.1768 -1.06085,-0.2652 -1.59127,-0.26521 -0.48962,10e-6 -0.90444,0.0952 -1.24445,0.28561 -0.32641,0.19042 -0.48962,0.49643 -0.48962,0.91804 0,0.36722 0.15641,0.63243 0.46922,0.79563 0.32641,0.16321 0.89763,0.34682 1.71367,0.55082 0.76163,0.19041 1.40765,0.38082 1.93808,0.57122 0.54401,0.19042 0.98603,0.40802 1.32605,0.65283 0.35361,0.24481 0.60522,0.53042 0.75483,0.85683 0.1632,0.31282 0.2448,0.69363 0.24481,1.14245 -10e-6,0.51682 -0.10881,0.98604 -0.32641,1.40765 -0.20402,0.42162 -0.49643,0.78204 -0.87724,1.08125 -0.38082,0.28561 -0.85004,0.51002 -1.40765,0.67322 -0.54403,0.14961 -1.14925,0.22441 -1.81567,0.22441"
         id="path3107"
         style="font-variant:normal;font-weight:bold;font-stretch:normal;fill:#00adeb;font-family:Raleway;-inkscape-font-specification:Raleway Bold" />
      <path
         d="m 314.32335,362.46964 -2.7337,0 0,-5.99784 c -2e-5,-0.85683 -0.14963,-1.48245 -0.44882,-1.87688 -0.29923,-0.39441 -0.70724,-0.59161 -1.22405,-0.59162 -0.53044,10e-6 -1.03365,0.21082 -1.50966,0.63242 -0.47603,0.40803 -0.81604,0.94525 -1.02004,1.61167 l 0,6.22225 -2.73371,0 0,-5.99784 c -10e-6,-0.85683 -0.14961,-1.48245 -0.44882,-1.87688 -0.28562,-0.39441 -0.68683,-0.59161 -1.20365,-0.59162 -0.53042,10e-6 -1.04044,0.20402 -1.53006,0.61202 -0.47602,0.40803 -0.81603,0.94525 -1.02004,1.61167 l 0,6.24265 -2.73371,0 0,-10.69003 2.4685,0 0,1.97888 c 0.39441,-0.69362 0.93163,-1.22404 1.61167,-1.59126 0.69362,-0.38081 1.48245,-0.57122 2.36649,-0.57123 0.89763,10e-6 1.58445,0.21762 2.06048,0.65283 0.48961,0.43523 0.80922,0.97245 0.95884,1.61166 0.43521,-0.73442 0.98603,-1.29204 1.65247,-1.67286 0.66641,-0.39441 1.42804,-0.59162 2.28489,-0.59163 0.65281,10e-6 1.19003,0.12242 1.61166,0.36722 0.4216,0.24482 0.74801,0.56443 0.97924,0.95884 0.23119,0.39442 0.3876,0.84324 0.46922,1.34645 0.0952,0.50323 0.14279,1.01325 0.1428,1.53006 l 0,6.67107"
         id="path3109"
         style="font-variant:normal;font-weight:bold;font-stretch:normal;fill:#00adeb;font-family:Raleway;-inkscape-font-specification:Raleway Bold" />
      <path
         d="m 319.9476,362.67364 c -1.10165,0 -1.93808,-0.35361 -2.5093,-1.06084 -0.57122,-0.70723 -0.85683,-1.75447 -0.85683,-3.14172 l 0,-6.69147 2.73371,0 0,6.09984 c -10e-6,1.64567 0.59162,2.4685 1.77487,2.4685 0.54401,0 1.06083,-0.1564 1.55046,-0.46922 0.50321,-0.32641 0.91123,-0.81603 1.22405,-1.46886 l 0,-6.63026 2.73371,0 0,7.5483 c -2e-5,0.28561 0.0544,0.48962 0.1632,0.61202 0.10879,0.12241 0.2992,0.19041 0.57122,0.20401 l 0,2.3257 c -0.28562,0.0544 -0.53723,0.0884 -0.75483,0.102 -0.21761,0.0272 -0.40802,0.0408 -0.57122,0.0408 -0.48963,0 -0.87724,-0.1088 -1.16284,-0.32641 -0.27202,-0.23121 -0.44203,-0.54402 -0.51002,-0.93844 l -0.0612,-0.87723 c -0.48962,0.73443 -1.10845,1.28525 -1.85647,1.65246 -0.73444,0.36722 -1.55727,0.55082 -2.4685,0.55082"
         id="path3111"
         style="font-variant:normal;font-weight:bold;font-stretch:normal;fill:#00adeb;font-family:Raleway;-inkscape-font-specification:Raleway Bold" />
      <path
         d="m 335.70086,361.91881 c -0.36723,0.16321 -0.82284,0.32642 -1.36686,0.48962 -0.53042,0.16321 -1.08805,0.24481 -1.67286,0.24481 -0.38082,0 -0.74124,-0.0476 -1.08125,-0.1428 -0.32641,-0.0952 -0.61882,-0.24481 -0.87723,-0.44882 -0.24481,-0.21761 -0.44202,-0.48962 -0.59163,-0.81603 -0.1496,-0.34002 -0.22441,-0.74803 -0.2244,-1.22405 l 0,-6.14065 -1.38726,0 0,-2.10128 1.38726,0 0,-3.46814 2.7337,0 0,3.46814 2.26449,0 0,2.10128 -2.26449,0 0,5.22261 c 0,0.38082 0.102,0.65283 0.30602,0.81603 0.204,0.14961 0.44881,0.22441 0.73443,0.22441 0.2856,0 0.56441,-0.0476 0.83643,-0.1428 0.272,-0.0952 0.48961,-0.17681 0.65282,-0.24481 l 0.55083,2.16248"
         id="path3113"
         style="font-variant:normal;font-weight:bold;font-stretch:normal;fill:#00adeb;font-family:Raleway;-inkscape-font-specification:Raleway Bold" />
      <path
         d="m 347.01948,362.46964 -2.73371,0 0,-5.99784 c -1e-5,-0.84323 -0.15641,-1.46205 -0.46922,-1.85648 -0.31282,-0.408 -0.75483,-0.61201 -1.32605,-0.61202 -0.24482,10e-6 -0.50323,0.0544 -0.77523,0.16321 -0.27202,0.10881 -0.53043,0.26521 -0.77523,0.46921 -0.24482,0.19042 -0.46922,0.42163 -0.67323,0.69363 -0.20401,0.27202 -0.35362,0.57123 -0.44882,0.89764 l 0,6.24265 -2.7337,0 0,-14.8926 2.7337,0 0,6.18145 c 0.39442,-0.69362 0.92484,-1.22404 1.59127,-1.59126 0.68002,-0.38081 1.42805,-0.57122 2.24409,-0.57123 0.69362,10e-6 1.25804,0.12242 1.69326,0.36722 0.43521,0.23122 0.77522,0.54403 1.02004,0.93844 0.2448,0.39442 0.41481,0.84324 0.51002,1.34645 0.0952,0.50323 0.1428,1.02005 0.14281,1.55046 l 0,6.67107"
         id="path3115"
         style="font-variant:normal;font-weight:bold;font-stretch:normal;fill:#00adeb;font-family:Raleway;-inkscape-font-specification:Raleway Bold" />
      <path
         d="m 349.33625,347.57704 2.73371,0 0,11.34285 c -10e-6,0.82964 0.37401,1.24446 1.12204,1.24445 0.1496,1e-5 0.31961,-0.0272 0.51002,-0.0816 0.204,-0.0544 0.39441,-0.1156 0.57122,-0.18361 l 0.36722,2.18289 c -0.36722,0.17681 -0.79564,0.31281 -1.28525,0.40802 -0.48963,0.0952 -0.93164,0.1428 -1.32606,0.1428 -0.85683,0 -1.52326,-0.22441 -1.99928,-0.67323 -0.46242,-0.46241 -0.69362,-1.11524 -0.69362,-1.95847 l 0,-12.4241"
         id="path3117"
         style="color:#000000;fill:#4f4f4f;fill-opacity:1;fill-rule:nonzero;stroke:none;marker:none;visibility:visible;display:inline;overflow:visible;enable-background:accumulate" />
      <path
         d="m 358.7493,362.67364 c -0.51682,0 -0.99964,-0.0816 -1.44845,-0.24481 -0.44882,-0.1768 -0.83644,-0.41481 -1.16285,-0.71402 -0.32641,-0.31282 -0.58482,-0.67323 -0.77523,-1.08125 -0.17681,-0.40801 -0.26521,-0.85683 -0.26521,-1.34645 0,-0.50322 0.1088,-0.96564 0.32641,-1.38726 0.23121,-0.43521 0.54402,-0.80242 0.93844,-1.10164 0.40801,-0.29921 0.89083,-0.53042 1.44846,-0.69363 0.55762,-0.1768 1.16964,-0.2652 1.83607,-0.26521 0.47601,1e-5 0.93843,0.0408 1.38726,0.12241 0.46241,0.0816 0.87042,0.19721 1.22404,0.34681 l 0,-0.61202 c 0,-0.70722 -0.20401,-1.25125 -0.61202,-1.63207 -0.39442,-0.38081 -0.98605,-0.57121 -1.77487,-0.57122 -0.57123,10e-6 -1.12885,0.10201 -1.67287,0.30601 -0.54402,0.20402 -1.10164,0.50323 -1.67286,0.89764 l -0.83644,-1.73407 c 1.37366,-0.91123 2.85611,-1.36685 4.44738,-1.36686 1.53685,10e-6 2.7269,0.38083 3.57014,1.14245 0.85683,0.74804 1.28524,1.83608 1.28525,3.26413 l 0,3.32533 c -10e-6,0.28561 0.0544,0.48962 0.16321,0.61202 0.10879,0.12241 0.2992,0.19041 0.57122,0.20401 l 0,2.3257 c -0.25842,0.0544 -0.50323,0.0884 -0.73443,0.102 -0.21762,0.0272 -0.40802,0.0408 -0.57122,0.0408 -0.51683,-0.0136 -0.91124,-0.1292 -1.18325,-0.34681 -0.27202,-0.23121 -0.44202,-0.53722 -0.51002,-0.91804 l -0.0612,-0.59162 c -0.47603,0.62562 -1.05405,1.10164 -1.73407,1.42805 -0.68003,0.32642 -1.40766,0.48962 -2.18289,0.48962 m 0.77524,-1.99928 c 0.46241,1e-5 0.89763,-0.0816 1.30565,-0.24481 0.42161,-0.1632 0.74802,-0.38081 0.97924,-0.65282 0.2992,-0.23121 0.44881,-0.48962 0.44881,-0.77523 l 0,-1.22405 c -0.32642,-0.1224 -0.68003,-0.21761 -1.06084,-0.28561 -0.38082,-0.0816 -0.74803,-0.1224 -1.10164,-0.12241 -0.70723,10e-6 -1.28526,0.16321 -1.73407,0.48962 -0.44882,0.31282 -0.67323,0.71403 -0.67323,1.20365 0,0.46242 0.17681,0.85004 0.53042,1.16285 0.35361,0.29921 0.78883,0.44882 1.30566,0.44881"
         id="path3119"
         style="color:#000000;fill:#4f4f4f;fill-opacity:1;fill-rule:nonzero;stroke:none;marker:none;visibility:visible;display:inline;overflow:visible;enable-background:accumulate" />
      <path
         d="m 373.68525,362.67364 c -0.81604,0 -1.54367,-0.1836 -2.18289,-0.55082 -0.63923,-0.36721 -1.14245,-0.87043 -1.50966,-1.50966 l 0,1.85648 -2.38689,0 0,-14.8926 2.73371,0 0,6.07944 c 0.38081,-0.65281 0.87723,-1.15603 1.48926,-1.50965 0.62561,-0.36721 1.34644,-0.55082 2.16248,-0.55083 0.69362,10e-6 1.32605,0.14962 1.89728,0.44882 0.58481,0.29922 1.08123,0.70044 1.48926,1.20365 0.4216,0.50323 0.74121,1.09485 0.95883,1.77487 0.2312,0.68003 0.34681,1.39406 0.34682,2.14208 -10e-6,0.77524 -0.12922,1.49607 -0.38762,2.16249 -0.24482,0.66643 -0.59163,1.25125 -1.04044,1.75447 -0.44883,0.48962 -0.97925,0.87724 -1.59126,1.16285 -0.61203,0.28561 -1.27166,0.42841 -1.97888,0.42841 m -0.75483,-2.32569 c 0.43521,0 0.82963,-0.0816 1.18325,-0.24481 0.3672,-0.1768 0.68002,-0.40801 0.93843,-0.69363 0.27201,-0.2856 0.47601,-0.61882 0.61203,-0.99964 0.14959,-0.38081 0.2244,-0.78882 0.22441,-1.22404 -10e-6,-0.43522 -0.068,-0.85003 -0.20401,-1.24445 -0.13602,-0.39441 -0.33322,-0.74123 -0.59162,-1.04045 -0.24482,-0.2992 -0.53723,-0.53721 -0.87724,-0.71402 -0.34002,-0.1768 -0.71403,-0.26521 -1.12204,-0.26521 -0.61203,0 -1.16286,0.20401 -1.65247,0.61202 -0.47602,0.39442 -0.84324,0.88404 -1.10164,1.46886 l 0,2.5501 c 0.0952,0.27201 0.2312,0.51682 0.40801,0.73443 0.19041,0.21761 0.40121,0.40802 0.63243,0.57122 0.2312,0.14961 0.48281,0.27201 0.75483,0.36722 0.272,0.0816 0.53721,0.1224 0.79563,0.1224"
         id="path3121"
         style="color:#000000;fill:#4f4f4f;fill-opacity:1;fill-rule:nonzero;stroke:none;marker:none;visibility:visible;display:inline;overflow:visible;enable-background:accumulate" />
    </g>
    <path
       d="m 321.10903,370.15168 c 0.30419,0.008 0.49614,1.98456 0.49614,1.98456 l -3.77421,1.13403 -3.70333,0.6379 -1.75421,-0.28351 c 0,0 -5.19521,-1.71127 -5.26758,-2.139 -0.0724,-0.42772 5.3499,0.29338 14.00319,-1.33398 z"
       id="path3830"
       style="color:#000000;fill:#00adeb;fill-opacity:1;fill-rule:nonzero;stroke:none;stroke-width:0.05;marker:none;visibility:visible;display:inline;overflow:visible;enable-background:accumulate" />
    <path
       d="m 307.59756,374.77048 c 0,0 7.18737,1.9559 11.12614,3.9593 3.23275,1.64429 -1.50353,-2.33047 -1.50353,-2.33047 l -5.33754,-2.02977 z"
       id="path3846"
       style="color:#000000;fill:#00adeb;fill-opacity:1;fill-rule:nonzero;stroke:none;stroke-width:1;marker:none;visibility:visible;display:inline;overflow:visible;enable-background:accumulate" />
    <g
       id="text3025"
       style="font-size:35.46798706px;font-style:normal;font-variant:normal;font-weight:500;font-stretch:normal;line-height:125%;letter-spacing:0px;word-spacing:0px;fill:#000000;fill-opacity:1;stroke:none;font-family:Ostrich Sans Rounded;-inkscape-font-specification:Ostrich Sans Rounded Medium">
      <path
         d="m 271.94214,355.63433 2.61045,0 -4.46631,10.6865 -2.24335,0 -1.83547,-4.69064 -1.81507,4.69064 -2.24335,0 -4.46631,-10.6865 2.59005,0 3.18148,8.11685 1.30522,-3.467 -1.87626,-4.62946 2.20257,0 1.12167,3.28345 1.14207,-3.28345 2.20256,0 -1.85586,4.62946 1.28483,3.467 3.16108,-8.11685"
         id="path3041"
         style="font-size:20.39409256px;font-weight:bold;color:#000000;fill:#00adeb;fill-opacity:1;fill-rule:nonzero;stroke:none;marker:none;visibility:visible;display:inline;overflow:visible;enable-background:accumulate;font-family:Raleway;-inkscape-font-specification:Raleway Bold" />
    </g>
    <path
       d="m 313.96093,376.41281 c -0.28692,0.4477 -6.48346,-2.33997 -24.04854,1.61089 -21.664,4.87281 -33.12985,-5.70181 -32.28602,-8.3993 0.46028,-1.4714 9.49441,7.04824 23.41667,5.08441 16.51307,-3.0528 34.98878,-4.82746 32.68092,-2.19302 -1.59369,2.6162 0.23697,3.89702 0.23697,3.89702 z"
       id="path3835"
       style="color:#000000;fill:#00adeb;fill-opacity:1;fill-rule:nonzero;stroke:none;stroke-width:1px;marker:none;visibility:visible;display:inline;overflow:visible;enable-background:accumulate" />
  </g>
</svg>
